<svg xmlns="http://www.w3.org/2000/svg" viewBox="0 0 200 200"><path d="M66 120L12 168Q10 176 20 176L84 152Z" fill="#17150F"/><path d="M12 168Q10 176 20 176L46 166L30 156Z" fill="#1F8A8A"/><ellipse cx="100" cy="122" rx="54" ry="46" fill="#17150F"/><ellipse cx="110" cy="134" rx="32" ry="30" fill="#F4F0E8"/><path d="M52 108C48 146 80 164 118 154C92 146 82 128 84 100C72 96 60 98 52 108Z" fill="#1F8A8A"/><circle cx="124" cy="68" r="34" fill="#17150F"/><path d="M154 60L184 70L154 80Z" fill="#D2400C"/><circle cx="136" cy="62" r="9" fill="#FFFFFF"/><circle cx="138" cy="63" r="4.5" fill="#17150F"/><circle cx="139.6" cy="61.4" r="1.5" fill="#FFFFFF"/><path d="M92 166v14M86 180h12M112 166v14M106 180h12" stroke="#D2400C" stroke-width="4" stroke-linecap="round" fill="none"/><text x="146" y="30" font-family="Bricolage Grotesque, sans-serif" font-size="46" font-weight="800" fill="#D2400C">?</text></svg>
